<svg xmlns="http://www.w3.org/2000/svg" viewBox="0 0 500 250" width="100%" height="100%">
  <defs>
    <linearGradient id="suvBody" x1="0%" y1="0%" x2="100%" y2="0%">
      <stop offset="0%" stop-color="#1e1b4b" />
      <stop offset="50%" stop-color="#312e81" />
      <stop offset="100%" stop-color="#1e1b4b" />
    </linearGradient>
  </defs>
  <ellipse cx="250" cy="215" rx="210" ry="14" fill="#000" opacity="0.4" />
  
  <!-- SUV Tall Body -->
  <path d="M 50 160 C 50 135 75 130 110 125 L 140 75 C 155 60 190 55 260 55 L 375 55 C 410 58 430 90 460 120 C 480 130 485 145 480 170 C 475 190 445 190 420 190 L 80 190 C 60 190 50 175 50 160 Z" fill="url(#suvBody)" stroke="#4338ca" stroke-width="2" />
  
  <!-- Roof Rails -->
  <line x1="160" y1="48" x2="380" y2="48" stroke="#94a3b8" stroke-width="4" stroke-linecap="round" />
  <line x1="180" y1="48" x2="180" y2="55" stroke="#94a3b8" stroke-width="3" />
  <line x1="360" y1="48" x2="360" y2="55" stroke="#94a3b8" stroke-width="3" />
  
  <!-- Windows -->
  <path d="M 150 78 L 245 78 L 245 120 L 120 120 Z" fill="#38bdf8" opacity="0.6" stroke="#cbd5e1" stroke-width="1.5" />
  <path d="M 255 78 L 345 78 L 345 120 L 255 120 Z" fill="#38bdf8" opacity="0.6" stroke="#cbd5e1" stroke-width="1.5" />
  <path d="M 355 78 L 405 78 L 435 120 L 355 120 Z" fill="#38bdf8" opacity="0.6" stroke="#cbd5e1" stroke-width="1.5" />
  
  <!-- Side Line Accent -->
  <path d="M 65 148 L 465 148" stroke="#f59e0b" stroke-width="3" stroke-linecap="round" />

  <!-- Heavy Duty SUV Wheels -->
  <g transform="translate(120, 188)">
    <circle cx="0" cy="0" r="35" fill="#0f172a" stroke="#334155" stroke-width="5" />
    <circle cx="0" cy="0" r="22" fill="#1e293b" />
    <circle cx="0" cy="0" r="10" fill="#f59e0b" />
    <circle cx="0" cy="0" r="4" fill="#fff" />
  </g>
  <g transform="translate(385, 188)">
    <circle cx="0" cy="0" r="35" fill="#0f172a" stroke="#334155" stroke-width="5" />
    <circle cx="0" cy="0" r="22" fill="#1e293b" />
    <circle cx="0" cy="0" r="10" fill="#f59e0b" />
    <circle cx="0" cy="0" r="4" fill="#fff" />
  </g>
</svg>
